HIERARCHY
ROOT Hips
{
	OFFSET 0.000000 0.000000 0.000000
	CHANNELS 6 Xposition Yposition Zposition Xrotation Yrotation Zrotation
	JOINT LeftUpLeg_virtual
	{
		OFFSET 0.000000 0.000000 0.000000
		CHANNELS 3 Xrotation Yrotation Zrotation
		JOINT LeftUpLeg
		{
			OFFSET 15.427100 -6.655098 0.678600
			CHANNELS 3 Xrotation Yrotation Zrotation
			JOINT LeftLeg
			{
				OFFSET 4.081073 -39.591068 13.024000
				CHANNELS 3 Xrotation Yrotation Zrotation
				JOINT LeftFoot
				{
					OFFSET -4.081074 -37.707932 -15.979700
					CHANNELS 3 Xrotation Yrotation Zrotation
					JOINT LeftToeBase
					{
						OFFSET 5.346399 -15.068900 20.645000
						CHANNELS 3 Xrotation Yrotation Zrotation
						JOINT LeftToe_End
						{
							OFFSET 2.754700 0.931300 11.300900
							CHANNELS 3 Xrotation Yrotation Zrotation
							End Site
							{
								OFFSET 0 0 0
							}
						}
					}
				}
			}
		}
	}
	JOINT RightUpLeg_virtual
	{
		OFFSET 0.000000 0.000000 0.000000
		CHANNELS 3 Xrotation Yrotation Zrotation
		JOINT RightUpLeg
		{
			OFFSET -15.569500 -6.655098 0.678600
			CHANNELS 3 Xrotation Yrotation Zrotation
			JOINT RightLeg
			{
				OFFSET -4.081825 -39.591045 13.023800
				CHANNELS 3 Xrotation Yrotation Zrotation
				JOINT RightFoot
				{
					OFFSET 4.081824 -37.707954 -15.979600
					CHANNELS 3 Xrotation Yrotation Zrotation
					JOINT RightToeBase
					{
						OFFSET -5.346400 -15.068900 20.645000
						CHANNELS 3 Xrotation Yrotation Zrotation
						JOINT RightToe_End
						{
							OFFSET -2.754700 0.931300 11.300900
							CHANNELS 3 Xrotation Yrotation Zrotation
							End Site
							{
								OFFSET 0 0 0
							}
						}
					}
				}
			}
		}
	}
	JOINT Spine_virtual
	{
		OFFSET 0.000000 0.000000 0.000000
		CHANNELS 3 Xrotation Yrotation Zrotation
		JOINT Spine
		{
			OFFSET -0.279200 12.230698 -2.892100
			CHANNELS 3 Xrotation Yrotation Zrotation
			JOINT Spine1
			{
				OFFSET -0.232667 10.192268 -1.242267
				CHANNELS 3 Xrotation Yrotation Zrotation
				JOINT Spine1_split
				{
					OFFSET -0.232667 10.192268 -1.242267
					CHANNELS 3 Xrotation Yrotation Zrotation
					JOINT Spine2
					{
						OFFSET -0.232667 10.192268 -1.242267
						CHANNELS 3 Xrotation Yrotation Zrotation
						JOINT Neck_virtual
						{
							OFFSET 0.000000 0.000000 0.000000
							CHANNELS 3 Xrotation Yrotation Zrotation
							JOINT Neck
							{
								OFFSET -0.418800 17.814194 8.416900
								CHANNELS 3 Xrotation Yrotation Zrotation
								JOINT Head
								{
									OFFSET 0.000000 7.031097 3.806800
									CHANNELS 3 Xrotation Yrotation Zrotation
									JOINT HeadTop_End
									{
										OFFSET 0.000000 24.646606 12.978600
										CHANNELS 3 Xrotation Yrotation Zrotation
										End Site
										{
											OFFSET 0 0 0
										}
									}
								}
							}
						}
						JOINT LeftShoulder_virtual
						{
							OFFSET 0.000000 0.000000 0.000000
							CHANNELS 3 Xrotation Yrotation Zrotation
							JOINT LeftShoulder
							{
								OFFSET 8.476499 7.247704 -3.868750
								CHANNELS 3 Xrotation Yrotation Zrotation
								JOINT LeftShoulder_split
								{
									OFFSET 8.476499 7.247704 -3.868750
									CHANNELS 3 Xrotation Yrotation Zrotation
									JOINT LeftArm
									{
										OFFSET 9.308998 -2.777710 0.208600
										CHANNELS 3 Xrotation Yrotation Zrotation
										JOINT LeftForeArm
										{
											OFFSET 29.972298 0.000000 0.000000
											CHANNELS 3 Xrotation Yrotation Zrotation
											JOINT LeftHand
											{
												OFFSET 26.026505 0.000000 0.000000
												CHANNELS 3 Xrotation Yrotation Zrotation
												End Site
												{
													OFFSET 0 0 0
												}
											}
										}
									}
								}
							}
						}
						JOINT RightShoulder_virtual
						{
							OFFSET 0.000000 0.000000 0.000000
							CHANNELS 3 Xrotation Yrotation Zrotation
							JOINT RightShoulder
							{
								OFFSET -7.570500 7.247704 -3.868750
								CHANNELS 3 Xrotation Yrotation Zrotation
								JOINT RightShoulder_split
								{
									OFFSET -7.570500 7.247704 -3.868750
									CHANNELS 3 Xrotation Yrotation Zrotation
									JOINT RightArm
									{
										OFFSET -9.308998 -2.777710 0.208500
										CHANNELS 3 Xrotation Yrotation Zrotation
										JOINT RightForeArm
										{
											OFFSET -29.972300 0.000000 0.000000
											CHANNELS 3 Xrotation Yrotation Zrotation
											JOINT RightHand
											{
												OFFSET -26.026505 0.000000 0.000000
												CHANNELS 3 Xrotation Yrotation Zrotation
												End Site
												{
													OFFSET 0 0 0
												}
											}
										}
									}
								}
							}
						}
					}
				}
			}
		}
	}
}
MOTION
Frames: 8
Frame Time: 0.03333333
-1.060443 41.252434 -9.542358 0.000000 0.000000 0.000000 4.887877 -6.205307 3.791320 -11.015591 0.975538 10.130533 101.487479 14.668825 7.161267 16.786284 5.159502 -27.549112 1.518058 4.882226 28.042954 0.000000 0.000000 0.000000 6.797943 -1.957215 2.360154 -3.099955 6.129903 -22.417777 95.866329 10.775042 1.425414 8.123945 7.313240 17.333794 -22.911542 -1.539048 -18.495652 0.000000 0.000000 0.000000 6.010434 -1.164108 1.201003 1.383389 1.932806 -1.567089 -0.306193 0.161017 0.204615 0.430700 -2.724773 0.849405 0.000000 0.000000 0.000000 0.073570 0.404438 -0.043520 -1.122678 2.375131 -0.786166 -0.216661 -2.687865 0.572255 0.000000 0.000000 0.000000 -0.224562 0.303574 -0.110199 0.264563 -4.058419 -20.067156 0.421390 2.722640 -2.677985 15.978142 -22.805756 -48.321666 1.644925 -27.628368 0.369955 0.000000 0.000000 0.000000 -0.334634 0.382490 0.256552 -0.177846 9.144343 22.539940 -2.623486 -3.834108 -3.429061 3.501011 3.782565 62.514563 2.627160 22.683779 -0.126904 0.000000 0.000000 0.000000 
-0.951562 41.174759 -9.519775 0.000000 0.000000 0.000000 4.851731 -6.214103 3.668192 -11.070875 0.864016 10.222893 101.573765 14.672640 7.173164 16.712947 5.159314 -27.780046 1.450613 4.858120 28.001399 0.000000 0.000000 0.000000 6.832102 -1.985241 2.245600 -3.068591 5.982890 -22.273996 95.735066 10.678325 1.396719 8.214036 7.244913 17.285443 -22.992136 -1.550019 -18.453385 0.000000 0.000000 0.000000 6.094396 -0.988263 0.969077 1.444899 1.977223 -1.477844 -0.363438 0.174628 0.172303 0.512777 -2.951838 0.885994 0.000000 0.000000 0.000000 0.050238 0.399431 -0.042122 -0.895856 2.495848 -0.942080 0.318447 -2.273635 0.652829 0.000000 0.000000 0.000000 -0.297856 0.328062 -0.169786 0.240130 -4.019370 -20.144731 0.399624 2.836247 -2.608736 16.337649 -22.218155 -48.440241 1.913043 -28.073027 0.460888 0.000000 0.000000 0.000000 -0.319064 0.413016 0.250909 -0.151556 8.849315 22.517165 -2.530453 -3.996654 -3.521529 3.342726 3.681389 62.349245 2.590403 22.922229 -0.109926 0.000000 0.000000 0.000000 
-0.891067 41.067299 -9.465321 0.000000 0.000000 0.000000 4.883469 -6.280981 3.485854 -11.128251 0.643167 10.501130 101.776225 14.511615 7.164862 16.639319 5.131160 -27.967891 1.468479 4.837858 28.001484 0.000000 0.000000 0.000000 6.889468 -2.017789 2.045774 -2.984262 5.799098 -21.980537 95.666300 10.528426 1.287471 8.158898 7.156994 17.269563 -23.137455 -1.545071 -18.409925 0.000000 0.000000 0.000000 6.092061 -1.021799 0.687178 1.429430 2.007620 -1.403880 -0.429387 0.194249 0.185119 0.552605 -3.144841 1.002517 0.000000 0.000000 0.000000 0.041012 0.382973 -0.008702 -0.515029 2.535724 -0.792068 2.064201 -1.779156 0.482645 0.000000 0.000000 0.000000 -0.348564 0.315563 -0.189613 0.245060 -3.771332 -20.138099 0.386041 2.890245 -2.462735 16.552144 -20.851739 -48.991953 2.074105 -29.854210 0.552637 0.000000 0.000000 0.000000 -0.307533 0.408151 0.280638 -0.141907 8.402152 22.629153 -2.408426 -3.918899 -3.491927 3.054569 3.261602 61.978270 2.481162 22.965196 -0.093730 0.000000 0.000000 0.000000 
-0.865190 40.950554 -9.408493 0.000000 0.000000 0.000000 4.951706 -6.357396 3.267536 -11.172676 0.317583 10.923316 102.045888 14.217929 7.135648 16.603620 5.129359 -28.041984 1.576084 4.825535 28.049758 0.000000 0.000000 0.000000 6.945032 -2.118759 1.794951 -2.895058 5.587741 -21.565825 95.676190 10.331335 1.108748 7.964926 7.039590 17.269493 -23.338519 -1.527251 -18.366572 0.000000 0.000000 0.000000 6.009278 -1.239354 0.395453 1.330642 2.033418 -1.346718 -0.502574 0.215488 0.235991 0.597189 -3.258384 1.146094 0.000000 0.000000 0.000000 0.019543 0.361822 0.058806 -0.025827 2.519609 -0.429292 4.826846 -1.295908 0.093252 0.000000 0.000000 0.000000 -0.368746 0.274598 -0.170622 0.274880 -3.397042 -20.052805 0.424197 2.883239 -2.265963 16.738126 -18.752416 -49.851082 2.137827 -32.534827 0.686360 0.000000 0.000000 0.000000 -0.299565 0.370529 0.342908 -0.141835 7.856082 22.812871 -2.261938 -3.582872 -3.389001 2.720167 2.572812 61.414418 2.315455 22.799682 -0.069214 0.000000 0.000000 0.000000 
-0.839104 40.835770 -9.398327 0.000000 0.000000 0.000000 5.039010 -6.479304 3.032649 -11.215087 -0.069060 11.413750 102.326903 13.839799 7.067314 16.610923 5.217533 -28.000588 1.745645 4.823091 28.135166 0.000000 0.000000 0.000000 6.999059 -2.332620 1.533124 -2.864905 5.363637 -21.078196 95.756302 10.105424 0.872234 7.704642 6.907267 17.269836 -23.636877 -1.490311 -18.322353 0.000000 0.000000 0.000000 5.908214 -1.633223 0.129958 1.170416 2.077624 -1.308225 -0.562825 0.236986 0.312446 0.628833 -3.272004 1.246854 0.000000 0.000000 0.000000 -0.016238 0.345836 0.154136 0.529509 2.501258 0.029501 8.315999 -0.922491 -0.462229 0.000000 0.000000 0.000000 -0.364797 0.221186 -0.128548 0.323020 -3.002868 -19.907969 0.487910 2.826627 -2.100463 16.957372 -16.093717 -50.869862 2.150210 -35.566458 0.854560 0.000000 0.000000 0.000000 -0.289779 0.318899 0.425801 -0.160850 7.283424 22.995773 -2.064533 -3.101464 -3.264983 2.368740 1.651389 60.696770 2.106182 22.422408 -0.038343 0.000000 0.000000 0.000000 
-0.796378 40.709209 -9.433929 0.000000 0.000000 0.000000 5.148136 -6.659719 2.803179 -11.336387 -0.468460 11.899212 102.592201 13.409943 6.960414 16.724362 5.409946 -27.931662 1.933280 4.836162 28.226411 0.000000 0.000000 0.000000 7.080755 -2.641784 1.278115 -2.974815 5.165308 -20.553195 95.900193 9.865413 0.613769 7.453594 6.780958 17.251560 -24.004229 -1.440987 -18.270787 0.000000 0.000000 0.000000 5.829651 -2.150109 -0.108034 1.002634 2.167888 -1.288331 -0.597092 0.262388 0.399006 0.556308 -3.155909 1.243470 0.000000 0.000000 0.000000 -0.051644 0.348685 0.265482 1.119673 2.492536 0.469324 12.221924 -0.701652 -1.116909 0.000000 0.000000 0.000000 -0.342732 0.178443 -0.080742 0.383640 -2.663343 -19.718133 0.534668 2.778340 -1.975073 17.223577 -13.260977 -51.922767 2.167701 -38.553430 1.055943 0.000000 0.000000 0.000000 -0.281362 0.273490 0.521228 -0.211216 6.750417 23.099647 -1.856477 -2.539148 -3.163444 2.050556 0.581773 59.850824 1.883823 21.874157 -0.012992 0.000000 0.000000 0.000000 
-0.754100 40.564751 -9.500401 0.000000 0.000000 0.000000 5.276409 -6.868430 2.586831 -11.615071 -0.826244 12.347806 102.848203 12.929865 6.842884 17.008138 5.666301 -27.987796 2.127377 4.871283 28.281293 0.000000 0.000000 0.000000 7.201080 -3.022174 1.042566 -3.281902 5.025041 -20.013832 96.075039 9.617632 0.365995 7.271881 6.675484 17.203057 -24.407669 -1.384421 -18.208108 0.000000 0.000000 0.000000 5.796550 -2.729648 -0.321502 0.898702 2.319237 -1.280252 -0.601040 0.295744 0.478003 0.440879 -2.944560 1.216635 0.000000 0.000000 0.000000 -0.073121 0.380647 0.376503 1.694733 2.509747 0.797750 16.231246 -0.623902 -1.768534 0.000000 0.000000 0.000000 -0.320133 0.166577 -0.032323 0.445756 -2.388628 -19.517926 0.593412 2.850422 -1.830991 17.446590 -10.690347 -52.914483 2.159142 -41.332722 1.227318 0.000000 0.000000 0.000000 -0.278506 0.251207 0.612680 -0.293247 6.295636 23.103791 -1.639168 -1.946792 -3.108632 1.751387 -0.487740 58.941746 1.664068 21.211788 0.007268 0.000000 0.000000 0.000000 
-0.718047 40.419937 -9.592182 0.000000 0.000000 0.000000 5.442046 -7.077938 2.380335 -12.117237 -1.116482 12.742692 103.140112 12.408676 6.728759 17.436781 5.986957 -28.234370 2.334789 4.931524 28.286557 0.000000 0.000000 0.000000 7.372670 -3.399249 0.816925 -3.809051 4.970718 -19.478825 96.250193 9.363277 0.130423 7.159808 6.597494 17.120849 -24.787860 -1.328107 -18.137496 0.000000 0.000000 0.000000 5.863305 -3.317997 -0.507964 0.917933 2.545267 -1.280202 -0.582525 0.338197 0.539200 0.379204 -2.822552 1.215897 0.000000 0.000000 0.000000 -0.055876 0.450121 0.468547 2.206885 2.563917 0.977028 20.006000 -0.703383 -2.314089 0.000000 0.000000 0.000000 -0.313084 0.199813 0.016047 0.511256 -2.167571 -19.345025 0.774819 3.069042 -1.692112 17.478951 -8.744999 -53.730445 2.086775 -43.768563 1.290602 0.000000 0.000000 0.000000 -0.278604 0.259550 0.684064 -0.412788 5.969534 23.014828 -1.380415 -1.330638 -3.032413 1.457924 -1.394787 58.025626 1.463341 20.529872 0.021347 0.000000 0.000000 0.000000 
